<svg xmlns="http://www.w3.org/2000/svg"  viewBox="0 0 48 48" width="48px" height="48px" baseProfile="basic"><path d="M43.859,20.365c0.105-0.161,0.16-0.347,0.162-0.535c0.001-0.107,0.003-1.829,0-2.026c-0.001-0.099-0.018-0.198-0.049-0.294	c-0.094-0.288-0.312-0.518-0.594-0.625l-4.486-1.717c-1.089-0.418-1.831-1.439-1.891-2.604l-0.247-4.798	c-0.016-0.302-0.167-0.58-0.411-0.757c-0.244-0.179-0.555-0.235-0.848-0.157l-4.639,1.248c-1.125,0.306-2.327-0.087-3.061-0.995	l-3.02-3.735C24.588,3.137,24.294,3.02,24,3.02s-0.588,0.117-0.777,0.352l-3.02,3.735c-0.733,0.908-1.936,1.301-3.061,0.995	l-4.639-1.248c-0.293-0.078-0.604-0.021-0.848,0.157c-0.244,0.177-0.396,0.455-0.411,0.757l-0.247,4.798	c-0.06,1.164-0.802,2.186-1.891,2.604l-4.486,1.717c-0.282,0.107-0.5,0.337-0.594,0.625c-0.031,0.096-0.047,0.195-0.049,0.294	c-0.003,0.196-0.001,1.918,0,2.026c0.002,0.188,0.057,0.373,0.162,0.535l2.62,4.025C6.886,24.583,6.979,24.789,7.055,25	c-0.076,0.21-0.169,0.416-0.294,0.609l-2.62,4.026c-0.111,0.171-0.166,0.369-0.162,0.568c0.002,0.096,0.003,1.774,0,1.959	c-0.002,0.11,0.014,0.22,0.048,0.327c0.094,0.288,0.312,0.518,0.594,0.625l4.485,1.717c1.09,0.418,1.832,1.439,1.892,2.604	l0.247,4.798c0.016,0.302,0.167,0.58,0.411,0.757c0.244,0.179,0.556,0.234,0.848,0.157l4.639-1.248	c1.124-0.303,2.327,0.088,3.061,0.995l3.02,3.735C23.412,46.863,23.698,47,24,47s0.588-0.137,0.777-0.371l3.02-3.735	c0.733-0.907,1.937-1.298,3.061-0.995l4.639,1.248c0.292,0.077,0.604,0.021,0.848-0.157c0.244-0.177,0.396-0.455,0.411-0.757	l0.247-4.798c0.06-1.164,0.802-2.186,1.892-2.604l4.485-1.717c0.282-0.107,0.5-0.337,0.594-0.625	c0.035-0.107,0.051-0.218,0.048-0.327c-0.003-0.185-0.002-1.863,0-1.959c0.004-0.199-0.05-0.397-0.162-0.568l-2.62-4.026	c-0.125-0.193-0.218-0.398-0.294-0.609c0.076-0.211,0.169-0.416,0.294-0.609L43.859,20.365z"/><path fill="#fff" d="M24,4l3.02,3.736c0.982,1.215,2.588,1.737,4.097,1.331l4.639-1.247l0.247,4.797	c0.08,1.56,1.073,2.927,2.532,3.485l4.486,1.718l-2.62,4.026c-0.852,1.31-0.852,2.998,0,4.308l2.62,4.026l-4.486,1.718	c-1.459,0.559-2.452,1.925-2.532,3.485l-0.247,4.797l-4.639-1.247c-1.509-0.406-3.115,0.116-4.097,1.331L24,44l-3.02-3.736	c-0.982-1.215-2.588-1.737-4.097-1.331l-4.639,1.247l-0.247-4.797c-0.08-1.56-1.073-2.927-2.532-3.485L4.979,30.18l2.62-4.026	c0.852-1.31,0.852-2.998,0-4.308l-2.62-4.026l4.486-1.718c1.459-0.559,2.452-1.925,2.532-3.485l0.247-4.797l4.639,1.247	c1.509,0.406,3.115-0.116,4.097-1.331L24,4z"/><path d="M24,45c-0.302,0-0.588-0.137-0.777-0.371l-3.02-3.735c-0.733-0.907-1.937-1.298-3.061-0.995l-4.639,1.248	c-0.292,0.077-0.603,0.021-0.848-0.157c-0.244-0.177-0.396-0.455-0.411-0.757l-0.247-4.798c-0.06-1.164-0.802-2.186-1.892-2.604	l-4.485-1.717c-0.282-0.107-0.5-0.337-0.594-0.625c-0.093-0.287-0.052-0.601,0.113-0.854l2.62-4.026c0.635-0.977,0.635-2.24,0-3.218	l-2.62-4.025c-0.165-0.254-0.206-0.567-0.113-0.854c0.094-0.288,0.312-0.518,0.594-0.625l4.486-1.717	c1.089-0.418,1.831-1.439,1.891-2.604l0.247-4.798c0.016-0.302,0.167-0.58,0.411-0.757c0.244-0.179,0.555-0.233,0.848-0.157	l4.639,1.248c1.125,0.306,2.327-0.088,3.061-0.995l3.02-3.735c0.379-0.469,1.176-0.469,1.555,0l3.02,3.735	c0.733,0.907,1.938,1.3,3.061,0.995l4.639-1.248c0.293-0.076,0.603-0.021,0.848,0.157c0.244,0.177,0.396,0.455,0.411,0.757	l0.247,4.798c0.06,1.164,0.802,2.186,1.892,2.604l4.485,1.717c0.282,0.107,0.5,0.337,0.594,0.625	c0.093,0.287,0.052,0.601-0.113,0.854l-2.62,4.026c-0.635,0.977-0.635,2.24,0,3.218l2.62,4.025c0.165,0.254,0.206,0.567,0.113,0.854	c-0.094,0.288-0.312,0.518-0.594,0.625l-4.486,1.717c-1.089,0.418-1.831,1.439-1.891,2.604l-0.247,4.798	c-0.016,0.302-0.167,0.58-0.411,0.757c-0.245,0.178-0.556,0.233-0.848,0.157l-4.639-1.248c-1.123-0.303-2.327,0.088-3.061,0.995	l-3.02,3.735C24.588,44.863,24.302,45,24,45z M17.906,37.798c1.474,0,2.898,0.658,3.852,1.838L24,42.409l2.242-2.773	c1.23-1.522,3.249-2.176,5.135-1.669l3.444,0.927l0.183-3.562c0.101-1.952,1.346-3.667,3.173-4.367l3.332-1.275L39.563,26.7	c-1.066-1.641-1.066-3.76,0-5.399l1.945-2.989l-3.331-1.275c-1.828-0.7-3.073-2.415-3.174-4.367l-0.183-3.562l-3.444,0.927	c-1.888,0.508-3.905-0.147-5.135-1.669L24,5.591l-2.242,2.773c-1.229,1.522-3.246,2.176-5.135,1.669l-3.444-0.927l-0.183,3.562	c-0.101,1.952-1.346,3.667-3.173,4.367l-3.332,1.275L8.437,21.3c1.066,1.641,1.066,3.76,0,5.399l-1.945,2.989l3.331,1.275	c1.828,0.7,3.073,2.415,3.174,4.367l0.183,3.562l3.444-0.927C17.048,37.853,17.479,37.798,17.906,37.798z"/><path d="M24,13c-6.065,0-11,4.935-11,11s4.935,11,11,11s11-4.935,11-11S30.065,13,24,13z M24,33c-4.963,0-9-4.037-9-9s4.037-9,9-9	s9,4.037,9,9S28.963,33,24,33z"/></svg>